<svg fill="#fff" xmlns="http://www.w3.org/2000/svg" height="20" width="20"><path d="M5.625 17.625q-.542 0-.917-.375t-.375-.917q0-.541.375-.916t.917-.375q.542 0 .917.385t.375.927q0 .521-.375.896t-.917.375Zm8.75 0q-.542 0-.917-.375t-.375-.917q0-.541.375-.916t.917-.375q.542 0 .917.385t.375.927q0 .521-.375.896t-.917.375ZM5.167 5.292 7 9.542h6.125q.063 0 .125-.032.062-.031.083-.093L15 5.521q.042-.083 0-.156t-.125-.073Zm-.459-1.084h11.146q.334 0 .479.24.146.24.042.51l-2.042 4.875q-.145.355-.468.573-.323.219-.719.219H6.604l-.916 1.604q-.063.104-.011.209.052.104.177.104h9.813v1.083H5.875q-.792 0-1.156-.646-.365-.646.031-1.291l1.146-1.98-2.771-6.416H1.417V2.208h2.437ZM7 9.542h6.271Z"/></svg>